<svg id="Layer_1" data-name="Layer 1" xmlns="http://www.w3.org/2000/svg" viewBox="0 0 512 512"><title>pointing-touch-hand-glyph</title><circle cx="237.34" cy="77.07" r="77.07" fill="#9b999f"/><path d="M460,285.48a31.85,31.85,0,0,0-63.7,0V261.06a31.85,31.85,0,1,0-63.7,0V246.68a31.85,31.85,0,0,0-63.7,0V87.42a31.85,31.85,0,1,0-63.7,0v223c0,17.59-15.6,38.58-31.85,31.85-22.07-9.14-67.57-67.57-67.57-67.57a31.85,31.85,0,0,0-45,0c-12.44,12.44-10.93,31.26,0,45C100.11,369.3,181.9,472,248.48,497.87c52.29,20.33,134.93,23.32,176.81-22.21,29.42-32,33.91-68.05,34.6-131,0-35.19.12-59.22.12-59.22Z" fill="#434040"/></svg>